<svg width="123" height="13" viewBox="0 0 123 13" fill="none" xmlns="http://www.w3.org/2000/svg">
<path id="text-1" d="M3.76383 3.77905C4.54144 3.77905 5.13728 4.13056 5.55134 4.83358C5.96539 5.5366 6.17242 6.58108 6.17242 7.96703C6.17242 9.27264 5.94015 10.3021 5.47559 11.0553C5.01104 11.8085 4.37481 12.1851 3.5669 12.1851C3.21343 12.1851 2.89027 12.0968 2.5974 11.92C2.30453 11.7453 2.05206 11.5022 1.83998 11.1909L1.73394 11.9592H0.0827637V0.811307L1.94602 0.615466V4.84864C2.15809 4.50718 2.41865 4.24304 2.72767 4.05624C3.03468 3.87145 3.38007 3.77905 3.76383 3.77905ZM3.067 10.7841C3.44066 10.7841 3.73151 10.5732 3.93955 10.1514C4.14557 9.7296 4.24857 9.00148 4.24857 7.96703C4.24857 6.89242 4.15566 6.15626 3.96984 5.75855C3.782 5.36285 3.5164 5.165 3.17304 5.165C2.94076 5.165 2.71859 5.26041 2.50651 5.45123C2.29443 5.64205 2.1076 5.89313 1.94602 6.20446V9.94051C2.0773 10.1916 2.24192 10.3955 2.43986 10.5521C2.63577 10.7068 2.84482 10.7841 3.067 10.7841ZM11.0957 3.79412C11.3279 3.79412 11.535 3.82927 11.7167 3.89957L11.4138 5.6772C11.2118 5.62699 11.025 5.60188 10.8533 5.60188C10.4695 5.60188 10.1666 5.76759 9.94438 6.09901C9.7222 6.43044 9.55052 6.92255 9.42933 7.57535V11.9592H7.56607V3.98996H9.18695L9.32329 5.37591C9.69695 4.32138 10.2877 3.79412 11.0957 3.79412ZM12.5802 3.98996H14.4434V11.9592H12.5802V3.98996ZM13.5042 0.0128784C13.8375 0.0128784 14.1072 0.118332 14.3132 0.329238C14.5212 0.540143 14.6252 0.811307 14.6252 1.14273C14.6252 1.46411 14.5212 1.73025 14.3132 1.94116C14.1072 2.15206 13.8375 2.25752 13.5042 2.25752C13.171 2.25752 12.9003 2.15206 12.6923 1.94116C12.4863 1.73025 12.3833 1.46411 12.3833 1.14273C12.3833 0.811307 12.4863 0.540143 12.6923 0.329238C12.9003 0.118332 13.171 0.0128784 13.5042 0.0128784ZM21.8783 7.78626C21.8783 7.87665 21.8631 8.13274 21.8328 8.55456H17.6973C17.7377 9.37809 17.8821 9.95256 18.1306 10.278C18.377 10.6054 18.7274 10.7691 19.1819 10.7691C19.4949 10.7691 19.7777 10.7158 20.0302 10.6094C20.2827 10.5049 20.5553 10.3372 20.8482 10.1062L21.6208 11.1607C20.9138 11.8437 20.0655 12.1851 19.0758 12.1851C18.0255 12.1851 17.2207 11.8236 16.6612 11.1005C16.0997 10.3774 15.8189 9.35801 15.8189 8.04236C15.8189 6.72671 16.0865 5.68724 16.6218 4.92397C17.157 4.16069 17.9145 3.77905 18.8941 3.77905C19.8333 3.77905 20.5654 4.1175 21.0906 4.79441C21.6157 5.47333 21.8783 6.47061 21.8783 7.78626ZM20.0605 7.34938V7.24393C20.0605 6.49069 19.9696 5.94033 19.7878 5.59284C19.606 5.24736 19.3132 5.07461 18.9092 5.07461C18.5355 5.07461 18.2507 5.24233 18.0548 5.57777C17.8569 5.91522 17.7377 6.50576 17.6973 7.34938H20.0605ZM26.1198 2.00142C25.8371 2.00142 25.628 2.07674 25.4927 2.22739C25.3554 2.37803 25.2867 2.60903 25.2867 2.92036V3.98996H26.8167L26.6046 5.33071H25.2867V11.9592H23.4234V5.33071H22.4236V3.98996H23.4234V2.98062C23.4234 2.25752 23.6355 1.68004 24.0597 1.24818C24.4838 0.816329 25.0897 0.600401 25.8775 0.600401C26.4935 0.600401 27.0893 0.751048 27.665 1.05234L27.1499 2.25752C26.7965 2.08678 26.4531 2.00142 26.1198 2.00142ZM30.6492 3.98996H32.5125V11.9592H30.6492V3.98996ZM31.5733 0.0128784C31.9065 0.0128784 32.1762 0.118332 32.3822 0.329238C32.5902 0.540143 32.6942 0.811307 32.6942 1.14273C32.6942 1.46411 32.5902 1.73025 32.3822 1.94116C32.1762 2.15206 31.9065 2.25752 31.5733 2.25752C31.24 2.25752 30.9693 2.15206 30.7613 1.94116C30.5553 1.73025 30.4523 1.46411 30.4523 1.14273C30.4523 0.811307 30.5553 0.540143 30.7613 0.329238C30.9693 0.118332 31.24 0.0128784 31.5733 0.0128784ZM36.4632 3.77905C37.4125 3.77905 38.2153 4.09039 38.8718 4.71306L38.1598 5.72239C37.877 5.52153 37.6094 5.37089 37.3569 5.27045C37.1045 5.17002 36.8469 5.11981 36.5844 5.11981C36.2915 5.11981 36.0622 5.19714 35.8966 5.3518C35.729 5.50848 35.6452 5.7224 35.6452 5.99356C35.6452 6.26472 35.7391 6.48266 35.9269 6.64737C36.1127 6.81408 36.4884 7.00791 37.054 7.22886C37.7508 7.50003 38.2658 7.82141 38.5991 8.193C38.9324 8.5646 39.099 9.06173 39.099 9.68441C39.099 10.4577 38.8263 11.0673 38.281 11.5133C37.7356 11.9612 37.0439 12.1851 36.2056 12.1851C35.6603 12.1851 35.1584 12.0867 34.6999 11.8899C34.2394 11.695 33.8374 11.4219 33.4941 11.0704L34.403 10.0761C34.9685 10.5682 35.5442 10.8143 36.1299 10.8143C36.4632 10.8143 36.7257 10.7269 36.9176 10.5521C37.1095 10.3754 37.2054 10.1313 37.2054 9.81999C37.2054 9.589 37.165 9.40119 37.0843 9.25657C37.0035 9.10994 36.8621 8.97335 36.6601 8.84681C36.4581 8.72228 36.1552 8.58469 35.7512 8.43404C35.0544 8.16287 34.5575 7.84652 34.2606 7.48496C33.9617 7.12341 33.8122 6.66143 33.8122 6.09901C33.8122 5.42612 34.0526 4.87074 34.5333 4.43286C35.012 3.99699 35.6553 3.77905 36.4632 3.77905ZM46.6277 10.4527L47.2791 11.5976C46.7843 11.9893 46.2036 12.1851 45.5371 12.1851C44.8402 12.1851 44.31 11.9863 43.9465 11.5886C43.5829 11.1929 43.4011 10.6536 43.4011 9.97064V5.33071H42.4619V3.98996H43.4011V2.22739L45.2644 2.00142V3.98996H46.7792L46.5975 5.33071H45.2644V9.97064C45.2644 10.4527 45.4714 10.6937 45.8855 10.6937C46.0168 10.6937 46.1329 10.6757 46.2339 10.6395C46.3349 10.6054 46.4662 10.5431 46.6277 10.4527ZM51.7934 3.77905C52.369 3.77905 52.8234 3.98493 53.1567 4.3967C53.49 4.80847 53.6566 5.36084 53.6566 6.05382V11.9592H51.7934V6.26472C51.7934 5.88309 51.7398 5.60891 51.6328 5.44219C51.5277 5.27748 51.3742 5.19513 51.1723 5.19513C50.7481 5.19513 50.329 5.59183 49.9149 6.38524V11.9592H48.0517V0.811307L49.9149 0.615466V4.93903C50.1674 4.54735 50.4421 4.2561 50.739 4.06528C51.0379 3.87446 51.3894 3.77905 51.7934 3.77905ZM61.046 7.78626C61.046 7.87665 61.0308 8.13274 61.0005 8.55456H56.865C56.9054 9.37809 57.0498 9.95256 57.2983 10.278C57.5447 10.6054 57.8951 10.7691 58.3496 10.7691C58.6626 10.7691 58.9454 10.7158 59.1979 10.6094C59.4504 10.5049 59.723 10.3372 60.0159 10.1062L60.7885 11.1607C60.0815 11.8437 59.2332 12.1851 58.2435 12.1851C57.1933 12.1851 56.3884 11.8236 55.8289 11.1005C55.2674 10.3774 54.9866 9.35801 54.9866 8.04236C54.9866 6.72671 55.2543 5.68724 55.7895 4.92397C56.3247 4.16069 57.0822 3.77905 58.0618 3.77905C59.001 3.77905 59.7331 4.1175 60.2583 4.79441C60.7834 5.47333 61.046 6.47061 61.046 7.78626ZM59.2282 7.34938V7.24393C59.2282 6.49069 59.1373 5.94033 58.9555 5.59284C58.7737 5.24736 58.4809 5.07461 58.0769 5.07461C57.7032 5.07461 57.4185 5.24233 57.2225 5.57777C57.0246 5.91522 56.9054 6.50576 56.865 7.34938H59.2282ZM69.0746 3.77905C69.6503 3.77905 70.1047 3.98493 70.438 4.3967C70.7713 4.80847 70.9379 5.36084 70.9379 6.05382V11.9592H69.0746V6.26472C69.0746 5.88309 69.0211 5.60891 68.9141 5.44219C68.809 5.27748 68.6555 5.19513 68.4536 5.19513C68.0294 5.19513 67.6103 5.59183 67.1962 6.38524V11.9592H65.333V3.98996H66.9539L67.0902 5.02942C67.3629 4.60761 67.6527 4.29326 67.9597 4.08637C68.2688 3.88149 68.6404 3.77905 69.0746 3.77905ZM78.3303 7.78626C78.3303 7.87665 78.3152 8.13274 78.2849 8.55456H74.1494C74.1898 9.37809 74.3332 9.95256 74.5796 10.278C74.828 10.6054 75.1795 10.7691 75.6339 10.7691C75.947 10.7691 76.2297 10.7158 76.4822 10.6094C76.7347 10.5049 77.0074 10.3372 77.3002 10.1062L78.0728 11.1607C77.3659 11.8437 76.5176 12.1851 75.5279 12.1851C74.4776 12.1851 73.6717 11.8236 73.1102 11.1005C72.5507 10.3774 72.271 9.35801 72.271 8.04236C72.271 6.72671 72.5386 5.68724 73.0738 4.92397C73.6091 4.16069 74.3665 3.77905 75.3461 3.77905C76.2853 3.77905 77.0175 4.1175 77.5426 4.79441C78.0677 5.47333 78.3303 6.47061 78.3303 7.78626ZM76.5125 7.34938V7.24393C76.5125 6.49069 76.4216 5.94033 76.2398 5.59284C76.0581 5.24736 75.7652 5.07461 75.3612 5.07461C74.9876 5.07461 74.7018 5.24233 74.5038 5.57777C74.3079 5.91522 74.1898 6.50576 74.1494 7.34938H76.5125ZM86.3105 3.98996H88.0374L86.6589 11.9592H84.3867L83.4929 5.6772L82.6143 11.9592H80.3572L78.9484 3.98996H80.751L81.569 10.5732L82.584 3.98996H84.4775L85.447 10.5732L86.3105 3.98996ZM95.7631 3.77905C96.5407 3.77905 97.1366 4.13056 97.5506 4.83358C97.9647 5.5366 98.1717 6.58108 98.1717 7.96703C98.1717 9.27264 97.9394 10.3021 97.4749 11.0553C97.0103 11.8085 96.3741 12.1851 95.5662 12.1851C95.2127 12.1851 94.8895 12.0968 94.5967 11.92C94.3038 11.7453 94.0513 11.5022 93.8393 11.1909L93.7332 11.9592H92.082V0.811307L93.9453 0.615466V4.84864C94.1574 4.50718 94.4169 4.24304 94.7239 4.05624C95.033 3.87145 95.3793 3.77905 95.7631 3.77905ZM95.0663 10.7841C95.4399 10.7841 95.7298 10.5732 95.9358 10.1514C96.1438 9.7296 96.2479 9.00148 96.2479 7.96703C96.2479 6.89242 96.1539 6.15626 95.9661 5.75855C95.7803 5.36285 95.5157 5.165 95.1723 5.165C94.94 5.165 94.7179 5.26041 94.5058 5.45123C94.2937 5.64205 94.1069 5.89313 93.9453 6.20446V9.94051C94.0766 10.1916 94.2402 10.3955 94.4361 10.5521C94.634 10.7068 94.8441 10.7841 95.0663 10.7841ZM101.262 12.1851C100.717 12.1851 100.284 12.0164 99.9653 11.679C99.6482 11.3435 99.4896 10.8946 99.4896 10.3322V0.796243L101.353 0.600401V10.2569C101.353 10.3874 101.383 10.4929 101.444 10.5732C101.504 10.6536 101.595 10.6937 101.716 10.6937C101.787 10.6937 101.855 10.6837 101.919 10.6636C101.986 10.6435 102.029 10.6335 102.05 10.6335L102.413 11.8989C102.07 12.0897 101.686 12.1851 101.262 12.1851ZM108.454 10.0309C108.454 10.292 108.49 10.4848 108.56 10.6094C108.631 10.7359 108.747 10.8394 108.909 10.9197L108.53 12.155C108.116 12.1048 107.786 11.9943 107.539 11.8236C107.291 11.6529 107.106 11.3917 106.985 11.0402C106.52 11.8035 105.869 12.1851 105.031 12.1851C104.364 12.1851 103.834 11.9612 103.44 11.5133C103.046 11.0673 102.85 10.4728 102.85 9.7296C102.85 8.86589 103.12 8.20807 103.661 7.75613C104.201 7.30419 104.985 7.07822 106.016 7.07822H106.637V6.52082C106.637 6.01867 106.549 5.66414 106.373 5.45726C106.195 5.25238 105.91 5.14994 105.516 5.14994C105.041 5.14994 104.45 5.2805 103.743 5.54162L103.319 4.33644C103.723 4.15567 104.142 4.01707 104.576 3.92066C105.011 3.82625 105.425 3.77905 105.819 3.77905C107.576 3.77905 108.454 4.66285 108.454 6.43044V10.0309ZM105.531 10.8444C106.016 10.8444 106.384 10.513 106.637 9.85012V8.17794H106.197C105.682 8.17794 105.307 8.29344 105.07 8.52443C104.832 8.75542 104.713 9.11195 104.713 9.59402C104.713 10.0058 104.783 10.3171 104.925 10.528C105.066 10.7389 105.268 10.8444 105.531 10.8444ZM113.09 3.77905C113.524 3.77905 113.918 3.85136 114.271 3.99598C114.625 4.14261 114.963 4.37159 115.286 4.68293L114.484 5.73746C114.261 5.55668 114.052 5.42311 113.856 5.33674C113.658 5.25238 113.443 5.2102 113.211 5.2102C112.757 5.2102 112.413 5.42311 112.181 5.84894C111.949 6.27678 111.833 6.99787 111.833 8.01223C111.833 8.99645 111.952 9.68943 112.19 10.0912C112.426 10.4929 112.767 10.6937 113.211 10.6937C113.433 10.6937 113.635 10.6536 113.817 10.5732C113.999 10.4929 114.211 10.3673 114.453 10.1966L115.286 11.2662C114.64 11.8788 113.918 12.1851 113.12 12.1851C112.09 12.1851 111.29 11.8356 110.721 11.1366C110.149 10.4397 109.863 9.40822 109.863 8.04236C109.863 7.15856 109.995 6.39528 110.257 5.75252C110.52 5.10976 110.896 4.61966 111.387 4.28221C111.876 3.94677 112.444 3.77905 113.09 3.77905ZM116.21 0.796243L118.074 0.600401V11.9592H116.21V0.796243ZM120.3 3.98996H122.118L119.998 7.51509L122.3 11.9592H120.3L118.149 7.60548L120.3 3.98996Z" fill="#001F3F"/>
</svg>
