<svg width="24" height="24" viewBox="0 0 24 24" fill="none" xmlns="http://www.w3.org/2000/svg">
<g id="u:angle-up">
<path id="Vector" d="M7.00005 10.5901L11.2901 14.8301C11.383 14.9238 11.4936 14.9982 11.6155 15.0489C11.7373 15.0997 11.868 15.1259 12.0001 15.1259C12.1321 15.1259 12.2628 15.0997 12.3846 15.0489C12.5065 14.9982 12.6171 14.9238 12.7101 14.8301L16.9501 10.5901C17.0438 10.4971 17.1182 10.3865 17.1689 10.2646C17.2197 10.1428 17.2459 10.0121 17.2459 9.88006C17.2459 9.74804 17.2197 9.61734 17.1689 9.49548C17.1182 9.37362 17.0438 9.26302 16.9501 9.17006C16.7627 8.98381 16.5092 8.87926 16.2451 8.87926C15.9809 8.87926 15.7274 8.98381 15.5401 9.17006L12.0001 12.7101L8.46005 9.17006C8.27379 8.98531 8.02239 8.88116 7.76005 8.88006C7.62845 8.87929 7.49798 8.90452 7.37614 8.95428C7.25431 9.00405 7.14349 9.07737 7.05005 9.17006C6.95298 9.25967 6.87462 9.36764 6.81952 9.48771C6.76441 9.60779 6.73364 9.7376 6.72899 9.86963C6.72434 10.0017 6.7459 10.1333 6.79243 10.257C6.83895 10.3806 6.90952 10.4938 7.00005 10.5901Z" fill="black"/>
</g>
</svg>
